PathFileType	4	(X/Y/Z)	E:\Qualisys_Data\Carbon_Farble_Plate\Data\Amateur_Runner\S14\T2\S14T2V11_c3d.trc
DataRate	CameraRate	NumFrames	NumMarkers	Units	OrigDataRate	OrigDataStartFrame	OrigNumFrames
200.000000	200.000000	4	39	mm	200.000000	167	334
Frame#	Time	LSHO			RSHO			LICST			RICST			LASIS			LHEEL			RASIS			LTROC			RTROC			SACR			LTH1			LSK4			LTH2			LTH3			RHM5			LSK2			LTH4			RTH1			LTOE			RTH2			RTH3			RTH4			LLEP			RLEP			LSK1			LSK3			RSK1			LHM5			RSK2			LFT1			RSK3			RSK4			LLME			RLME			RTOE			RHEEL			RFT1			RFT2			LFT2			
		X1	Y1	Z1	X2	Y2	Z2	X3	Y3	Z3	X4	Y4	Z4	X5	Y5	Z5	X6	Y6	Z6	X7	Y7	Z7	X8	Y8	Z8	X9	Y9	Z9	X10	Y10	Z10	X11	Y11	Z11	X12	Y12	Z12	X13	Y13	Z13	X14	Y14	Z14	X15	Y15	Z15	X16	Y16	Z16	X17	Y17	Z17	X18	Y18	Z18	X19	Y19	Z19	X20	Y20	Z20	X21	Y21	Z21	X22	Y22	Z22	X23	Y23	Z23	X24	Y24	Z24	X25	Y25	Z25	X26	Y26	Z26	X27	Y27	Z27	X28	Y28	Z28	X29	Y29	Z29	X30	Y30	Z30	X31	Y31	Z31	X32	Y32	Z32	X33	Y33	Z33	X34	Y34	Z34	X35	Y35	Z35	X36	Y36	Z36	X37	Y37	Z37	X38	Y38	Z38	X39	Y39	Z39	

168	0.835	41.14035797119141	1481.849731445312	-462.5177612304688	-2.653887510299683	1480.535766601562	-173.4386291503906	-8.32522964477539	1028.221069335938	-453.977783203125	13.03187942504883	1028.403564453125	-180.6469268798828	29.5918025970459	974.86328125	-433.8580017089844	-553.8825073242188	388.8735961914062	-327.7062072753906	40.06484985351562	986.05810546875	-202.95703125	-119.5016479492188	924.4513549804688	-474.6596069335938	-86.09943389892578	901.6104125976562	-142.7803649902344	-141.7252349853516	1032.125244140625	-324.4743041992188	-120.6234741210938	690.9586791992188	-476.9326477050781	-407.7885437011719	479.0580444335938	-414.662841796875	-192.305908203125	714.1201171875	-449.290771484375	-141.1167907714844	594.889892578125	-459.0086669921875	312.9575805664062	142.0805969238281	-148.2396087646484	-326.1026000976562	532.2017211914062	-437.84912109375	-215.3218841552734	619.1073608398438	-434.3003845214844	102.168098449707	718.3947143554688	-150.6407165527344	-537.2573852539062	136.2856140136719	-384.2435913085938	29.17637825012207	692.1967163085938	-135.8752136230469	135.4093322753906	627.8760986328125	-180.4974212646484	58.35771560668945	597.6310424804688	-159.8403625488281	-213.1324005126953	550.1578979492188	-447.4937438964844	108.0030670166016	542.5056762695312	-170.0176086425781	-283.1192626953125	462.9145202636719	-447.4094543457031	-368.5287780761719	409.9924011230469	-431.019287109375	157.76220703125	434.0279846191406	-164.5792083740234	-576.9223022460938	206.4251556396484	-431.2582702636719	75.34898376464844	412.3591613769531	-166.4932708740234	-575.9449462890625	370.00341796875	-300.1237182617188	178.2880096435547	332.9276733398438	-173.9552001953125	100.4020614624023	319.5493774414062	-175.8039245605469	-534.4888305664062	349.2608337402344	-398.1558227539062	179.4143371582031	151.0564880371094	-191.7163543701172	384.1150207519531	191.9773406982422	-198.4178619384766	143.32861328125	102.0734634399414	-251.1101226806641	173.3612060546875	82.32209777832031	-276.85693359375	152.8012542724609	75.48023986816406	-224.7079467773438	-590.609375	383.2451171875	-351.9718017578125
169	0.84	57.43330001831055	1479.80322265625	-461.6001586914062	13.94427299499512	1478.051879882812	-172.0762786865234	8.258118629455566	1026.33447265625	-453.7120056152344	29.49987411499023	1025.62939453125	-180.1273040771484	46.51821899414062	973.2056274414062	-433.5716247558594	-536.5924072265625	393.780517578125	-327.1957397460938	56.31377029418945	983.8140869140624	-202.2211456298828	-102.0369033813477	921.7197265625	-474.6352233886719	-69.72611999511719	898.616943359375	-142.6468963623047	-124.044189453125	1029.388427734375	-322.7876281738281	-100.6406326293945	687.878173828125	-477.2774353027344	-387.77197265625	480.4017944335938	-415.0859069824219	-173.130126953125	710.0396728515625	-450.6520080566406	-120.6424713134766	591.6328125	-459.7323303222656	330.81591796875	141.1313934326172	-149.3722229003906	-305.3301391601562	531.8267822265625	-438.3928527832031	-195.0391845703125	614.90087890625	-435.3758239746094	118.0878067016602	715.4463500976562	-150.0705261230469	-523.2409057617188	140.7033843994141	-383.3919677734375	44.46224975585938	689.2653198242188	-134.9771728515625	150.3150939941406	624.860595703125	-180.6091156005859	73.17117309570312	594.259765625	-159.1781005859375	-191.9184722900391	546.5076293945312	-448.3966064453125	123.623046875	540.0399169921875	-169.8121032714844	-263.7716064453125	461.0762023925781	-448.0870056152344	-350.5687866210938	409.9765014648438	-430.98974609375	174.5862121582031	431.3162536621094	-165.2830505371094	-562.4307250976562	211.1159820556641	-430.4630737304688	91.83595275878906	409.0904235839844	-166.5330352783203	-558.5036010742188	375.2745666503906	-300.0301208496094	195.0919494628906	330.312744140625	-175.0510559082031	117.5021362304688	316.3925170898438	-176.2064056396484	-517.5557250976562	354.0269775390625	-397.3942260742188	197.1927947998047	148.456787109375	-192.581787109375	401.6270141601562	191.7122497558594	-199.3872833251953	161.4032897949219	99.20395660400392	-251.9765930175781	191.8061218261719	79.84742736816406	-277.7011108398438	171.6156005859375	72.72755432128906	-225.6158142089844	-573.0132446289062	388.1316833496094	-351.5134582519531
170	0.845	74.02861785888672	1477.585205078125	-460.7213745117188	30.85345268249512	1475.428466796875	-170.9596252441406	24.68296813964844	1023.9921875	-453.1939392089844	46.34677886962891	1022.884338378906	-179.5018768310547	63.25643539428711	971.2398681640624	-432.9921569824219	-518.6346435546875	398.6162414550781	-327.7243957519531	73.10383605957031	981.3721313476562	-201.6445007324219	-84.48112487792969	918.82666015625	-474.6859436035156	-53.42816925048828	895.3178100585938	-142.9705047607422	-106.6346588134766	1025.96435546875	-321.5927429199219	-80.56615447998047	684.5052490234375	-478.178466796875	-367.7889099121094	481.4104614257812	-415.9905395507812	-153.7791137695312	706.0381469726562	-451.6809692382812	-99.72208404541016	587.8261108398438	-459.9831848144531	347.859375	139.6170043945312	-150.2922210693359	-284.1945190429688	530.5245361328125	-439.2042541503906	-174.5472259521484	610.3613891601562	-436.1710815429688	133.5713653564453	712.5803833007812	-149.1335144042969	-508.7356567382812	145.0430755615234	-382.9073181152344	59.45839309692383	686.2769165039062	-134.201416015625	165.6829376220703	622.4022827148438	-180.48095703125	89.12976837158203	591.6871948242188	-158.6846618652344	-170.6876220703125	542.6738891601562	-449.0948486328125	139.6969451904297	537.29345703125	-170.0962982177734	-244.0851440429688	458.6355895996094	-448.326416015625	-331.7734680175781	409.7349243164062	-431.0796508789062	191.0985260009766	428.7283630371094	-165.7537536621094	-547.164306640625	216.1036834716797	-429.78369140625	108.2540664672852	406.0705261230469	-166.4447021484375	-540.678955078125	380.3284912109375	-299.07177734375	211.8539886474609	327.5963134765625	-175.6248626708984	134.2474670410156	313.3841857910156	-176.7692718505859	-500.0312194824219	357.733154296875	-397.1220703125	214.1777038574219	145.8815002441406	-193.2015991210938	417.9978637695312	190.9583435058594	-200.4945068359375	178.7296295166016	95.95271301269533	-252.7447357177734	209.2208099365234	77.06813049316406	-278.83251953125	188.8074340820312	69.38478088378906	-226.9645843505859	-555.0591430664062	393.4862060546875	-351.4414978027344
171	0.85	90.66149139404295	1474.806396484375	-459.7528381347656	47.92673110961914	1472.232055664062	-169.9002685546875	41.14675521850586	1021.641296386719	-452.8414001464844	62.57505416870117	1020.261779785156	-178.7082366943359	79.94410705566406	968.8770141601562	-432.4254150390625	-500.2294311523438	403.0228576660156	-327.3812561035156	89.79248046875	978.5878295898438	-201.1809844970703	-67.2105941772461	915.4789428710938	-474.5565795898438	-37.37400817871094	892.3334350585938	-142.7371978759766	-89.04359436035156	1022.643005371094	-320.0419921875	-60.47088241577148	680.860595703125	-478.4603881835938	-347.0823669433594	481.6341857910156	-416.6980895996094	-134.3375854492188	700.9671630859375	-452.4721374511719	-78.54730224609375	583.5906982421875	-460.5906372070312	363.8009033203125	137.2079620361328	-151.6509246826172	-262.4043273925781	528.958251953125	-440.6422729492188	-153.7635803222656	605.275146484375	-437.0867919921875	149.2203826904297	710.0020751953125	-148.2021484375	-494.1078186035156	149.1416015625	-381.6708984375	75.17207336425781	683.3041381835938	-134.4010620117188	181.7563781738281	620.2930908203125	-180.3577423095703	104.6371994018555	588.906005859375	-158.9608459472656	-148.9261322021484	538.5623779296875	-450.4761962890625	155.8989105224609	534.6694946289062	-170.2236785888672	-224.0430603027344	456.4109802246094	-449.1569213867188	-312.638671875	409.4109191894531	-431.225341796875	207.1121215820312	425.2412414550781	-166.2688903808594	-531.6234130859375	220.5005493164062	-428.86083984375	124.5043792724609	402.9566345214844	-166.7744750976562	-522.0131225585938	385.0331115722656	-298.6107788085938	228.0381469726562	324.3363342285156	-176.8207550048828	150.6960144042969	310.4946594238281	-176.7130279541016	-482.0834350585938	360.9388427734375	-397.398193359375	230.0997467041016	142.7718200683594	-194.2798156738281	433.4695739746094	189.1795349121094	-201.9829254150391	194.8842926025391	92.47883605957033	-253.6453247070312	225.2905426025391	73.8003921508789	-279.8922119140625	205.6441345214844	65.71206665039062	-227.7366638183594	-536.62841796875	397.7240295410156	-350.8325500488281
